<?xml version="1.0" encoding="iso-8859-1"?>
<!-- Generator: Adobe Illustrator 19.0.0, SVG Export Plug-In . SVG Version: 6.00 Build 0)  -->
<svg version="1.1" id="Layer_1" xmlns="http://www.w3.org/2000/svg" xmlns:xlink="http://www.w3.org/1999/xlink" x="0px" y="0px"
	 viewBox="0 0 512 512" style="enable-background:new 0 0 512 512;" xml:space="preserve">
<path style="fill:#73C9C9;" d="M467.819,83.862H44.181c-14.625,0-26.526,11.922-26.526,26.569v123.414
	c0,14.647,11.901,26.569,26.526,26.569h423.638c14.625,0,26.526-11.922,26.526-26.569V110.431
	C494.345,95.784,482.444,83.862,467.819,83.862z M415.021,233.931H88.276v-17.655h326.746V233.931z M459.034,207.448H52.966v-17.655
	h406.069V207.448z"/>
<g>
	<path style="fill:#314E55;" d="M467.819,66.207H44.181C19.819,66.207,0,86.043,0,110.431v123.414
		c0,24.388,19.819,44.224,44.181,44.224h185.336v123.586h17.655V278.069h17.655v123.586h17.655V278.069h185.336
		c24.362,0,44.181-19.836,44.181-44.224V110.431C512,86.043,492.181,66.207,467.819,66.207z M494.345,233.845
		c0,14.647-11.901,26.569-26.526,26.569H44.181c-14.625,0-26.526-11.922-26.526-26.569V110.431
		c0-14.647,11.901-26.569,26.526-26.569h423.638c14.625,0,26.526,11.922,26.526,26.569V233.845z"/>
	<rect x="88.276" y="216.276" style="fill:#314E55;" width="326.753" height="17.655"/>
	<rect x="52.966" y="189.793" style="fill:#314E55;" width="406.069" height="17.655"/>
	<path style="fill:#314E55;" d="M379.586,392.828c-4.875,0-8.828,3.948-8.828,8.828c0,14.603-11.879,26.483-26.483,26.483
		c-14.603,0-26.483-11.879-26.483-26.483v-97.103h-17.655v97.103c0,24.336,19.802,44.138,44.138,44.138
		c24.336,0,44.138-19.802,44.138-44.138C388.414,396.776,384.461,392.828,379.586,392.828z"/>
	<path style="fill:#314E55;" d="M194.207,401.655c0,14.603-11.879,26.483-26.483,26.483s-26.483-11.879-26.483-26.483
		c0-4.879-3.953-8.828-8.828-8.828c-4.875,0-8.828,3.948-8.828,8.828c0,24.336,19.802,44.138,44.138,44.138
		s44.138-19.802,44.138-44.138v-97.103h-17.655V401.655z"/>
</g>
<g>
</g>
<g>
</g>
<g>
</g>
<g>
</g>
<g>
</g>
<g>
</g>
<g>
</g>
<g>
</g>
<g>
</g>
<g>
</g>
<g>
</g>
<g>
</g>
<g>
</g>
<g>
</g>
<g>
</g>
</svg>
