<?xml version="1.0" encoding="iso-8859-1"?>
<!-- Generator: Adobe Illustrator 19.0.0, SVG Export Plug-In . SVG Version: 6.00 Build 0)  -->
<svg version="1.1" id="Layer_1" xmlns="http://www.w3.org/2000/svg" xmlns:xlink="http://www.w3.org/1999/xlink" x="0px" y="0px"
	 viewBox="0 0 512 512" style="enable-background:new 0 0 512 512;" xml:space="preserve">
<path style="fill:#E65F58;" d="M467.819,87.897H44.181c-14.625,0-26.526,11.922-26.526,26.569v123.414
	c0,14.647,11.901,26.569,26.526,26.569h423.638c14.625,0,26.526-11.922,26.526-26.569V114.466
	C494.345,99.819,482.444,87.897,467.819,87.897z M415.021,237.966H88.276V220.31h326.746V237.966z M459.034,211.483H52.966v-17.655
	h406.069V211.483z"/>
<g>
	<path style="fill:#314E55;" d="M467.819,70.241H44.181C19.819,70.241,0,90.078,0,114.466v123.414
		c0,24.388,19.819,44.224,44.181,44.224h423.638c24.362,0,44.181-19.836,44.181-44.224V114.466
		C512,90.078,492.181,70.241,467.819,70.241z M494.345,237.879c0,14.647-11.901,26.569-26.526,26.569H44.181
		c-14.625,0-26.526-11.922-26.526-26.569V114.466c0-14.647,11.901-26.569,26.526-26.569h423.638
		c14.625,0,26.526,11.922,26.526,26.569V237.879z"/>
	<rect x="88.276" y="220.31" style="fill:#314E55;" width="326.753" height="17.655"/>
	<rect x="52.966" y="193.828" style="fill:#314E55;" width="406.069" height="17.655"/>
	<path style="fill:#314E55;" d="M293.453,338.103l-39.509,39.509l-38.31-38.31c-3.448-3.448-9.035-3.448-12.483,0
		s-3.448,9.035,0,12.483l38.31,38.31l-35.397,35.397c-3.448,3.448-3.448,9.035,0,12.483c1.724,1.724,3.983,2.586,6.241,2.586
		c2.259,0,4.517-0.862,6.241-2.586l35.397-35.397l36.595,36.595c1.724,1.724,3.983,2.586,6.241,2.586s4.517-0.862,6.241-2.586
		c3.448-3.448,3.448-9.035,0-12.483l-36.595-36.595l39.509-39.509c3.448-3.448,3.448-9.035,0-12.483
		C302.487,334.656,296.901,334.655,293.453,338.103z"/>
</g>
<g>
</g>
<g>
</g>
<g>
</g>
<g>
</g>
<g>
</g>
<g>
</g>
<g>
</g>
<g>
</g>
<g>
</g>
<g>
</g>
<g>
</g>
<g>
</g>
<g>
</g>
<g>
</g>
<g>
</g>
</svg>
