<?xml version="1.0" encoding="iso-8859-1"?>
<!-- Generator: Adobe Illustrator 18.0.0, SVG Export Plug-In . SVG Version: 6.00 Build 0)  -->
<!DOCTYPE svg PUBLIC "-//W3C//DTD SVG 1.1//EN" "http://www.w3.org/Graphics/SVG/1.1/DTD/svg11.dtd">
<svg version="1.1" id="Capa_1" xmlns="http://www.w3.org/2000/svg" xmlns:xlink="http://www.w3.org/1999/xlink" x="0px" y="0px"
	 viewBox="0 0 60 60" style="enable-background:new 0 0 60 60;" xml:space="preserve">
<line style="fill:none;stroke:#556080;stroke-width:2;stroke-linecap:round;stroke-linejoin:round;stroke-miterlimit:10;" x1="30" y1="11.5" x2="30" y2="28.5"/>
<rect x="25" y="7.5" style="fill:#38454F;" width="10" height="4"/>
<path style="fill:#fff;stroke:#7383BF;stroke-width:2;stroke-linecap:round;stroke-linejoin:round;stroke-miterlimit:10;" d="
	M59,52.5H1V36.527C1,29.333,6.833,23.5,14.027,23.5h31.945C53.167,23.5,59,29.333,59,36.527V52.5z"/>
<rect x="2" y="43.5" style="fill:#fff;" width="56" height="8"/>
<line style="fill:none;stroke:#556080;stroke-width:2;stroke-linecap:round;stroke-linejoin:round;stroke-miterlimit:10;" x1="20" y1="7.5" x2="40" y2="7.5"/>
<line style="fill:none;stroke:#AFB6BB;stroke-width:2;stroke-linecap:round;stroke-linejoin:round;stroke-miterlimit:10;" x1="14" y1="28.5" x2="47" y2="28.5"/>
<path style="fill:#AFB6BB;" d="M14.908,39.592L14.908,39.592c-1.858,0.201-3.201-1.142-3-3l0,0c0.201-1.858,1.87-3.527,3.728-3.728
	L19,32.5l-0.364,3.364C18.435,37.722,16.766,39.391,14.908,39.592z"/>
<path style="fill:#AFB6BB;" d="M46.092,39.592L46.092,39.592c1.858,0.201,3.201-1.142,3-3v0c-0.201-1.858-1.87-3.527-3.728-3.728
	L42,32.5l0.364,3.364C42.565,37.722,44.234,39.391,46.092,39.592z"/>
<path style="fill:#AFB6BB;" d="M27.879,40.408L27.879,40.408c1.172,1.456,3.071,1.456,4.243,0l0,0c1.172-1.456,1.172-3.816,0-5.272
	L30,32.5l-2.121,2.636C26.707,36.592,26.707,38.952,27.879,40.408z"/>
<line style="fill:none;stroke:#AFB6BB;stroke-width:2;stroke-linecap:round;stroke-linejoin:round;stroke-miterlimit:10;" x1="19" y1="32.5" x2="23" y2="28.5"/>
<line style="fill:none;stroke:#AFB6BB;stroke-width:2;stroke-linecap:round;stroke-linejoin:round;stroke-miterlimit:10;" x1="42" y1="32.5" x2="38" y2="28.5"/>
<line style="fill:none;stroke:#AFB6BB;stroke-width:2;stroke-linecap:round;stroke-linejoin:round;stroke-miterlimit:10;" x1="30" y1="32.5" x2="30" y2="28.5"/>
</svg>
