<?xml version="1.0" encoding="iso-8859-1"?>
<!-- Generator: Adobe Illustrator 19.0.0, SVG Export Plug-In . SVG Version: 6.00 Build 0)  -->
<svg version="1.1" id="Capa_1" xmlns="http://www.w3.org/2000/svg" xmlns:xlink="http://www.w3.org/1999/xlink" x="0px" y="0px"
	 viewBox="0 0 512 512" style="enable-background:new 0 0 512 512;" xml:space="preserve">
<g>
	<path style="fill:#1DE8F1;" d="M38.194,339.559c-21.733-90.657,14.541-188.245,93.223-241.268
		c16.497-11.069,33.177,13.834,16.758,24.873C79.69,169.347,48.639,254.285,67.374,332.557
		C71.978,351.744,42.847,359.087,38.194,339.559z"/>
	<path style="fill:#1DE8F1;" d="M94.385,315.081c-8.783-50.828,6.413-106.795,45.498-146.214
		c13.886-14.062,35.289,7.022,21.328,21.123c-31.959,32.218-44.533,78.565-37.236,119.993C127.31,329.336,97.898,335,94.385,315.081
		z"/>
	<path style="fill:#1DE8F1;" d="M409.809,450.2C366.31,491.6,312.511,512,257.012,512c-34.2,0-68.101-7.5-99-22.8
		c-18.001-9-4.2-35.7,13.2-27.001c26.999,13.2,56.4,19.501,85.8,19.2c49.2-0.3,95.8-18.6,132.099-53.101
		C403.811,414.8,424.213,436.7,409.809,450.2z"/>
	<path style="fill:#1DE8F1;" d="M360.613,413.599C330.312,439.1,294.812,452,257.012,452c-14.099,0-28.2-1.8-42.001-5.4
		c-19.199-5.101-11.699-34.2,7.5-29.101c11.4,3.001,22.8,4.501,34.501,4.501c30.901,0,62.402-11.1,86.4-31.201
		C358.713,377.899,375.613,401,360.613,413.599z"/>
</g>
<g>
	<path style="fill:#1BD9DE;" d="M360.613,413.599C330.312,439.1,294.812,452,257.012,452v-30c30.901,0,62.402-11.1,86.4-31.201
		C358.713,377.899,375.613,401,360.613,413.599z"/>
	<path style="fill:#1BD9DE;" d="M409.809,450.2C366.31,491.6,312.511,512,257.012,512v-30.601c49.2-0.3,95.8-18.6,132.099-53.101
		C403.811,414.8,424.213,436.7,409.809,450.2z"/>
</g>
<path style="fill:#0050B2;" d="M332.012,75c0,24.899-13.799,124.999-34.501,180.799c-2.699,7.8-11.4,11.7-19.199,9.001h-42.601
	c-7.798,2.699-16.5-1.201-19.199-9.001c-20.7-55.8-34.501-155.9-34.501-180.799c0-41.4,33.6-75,75-75S332.012,33.6,332.012,75z"/>
<path style="fill:#003A92;" d="M474.387,327.049c-21.475-12.393-111.35-49.629-170.119-59.678
	c-8.057-1.465-15.908,4.072-17.314,12.246l-21.328,37.017c-6.387,5.288-7.266,14.751-1.963,21.123
	c38.115,45.908,114.279,106.831,135.725,119.194c36.108,20.849,81.872,8.224,102.422-27.451
	C522.462,393.749,510.425,347.868,474.387,327.049z"/>
<path style="fill:#0050B2;" d="M248.399,316.634l-21.123-34.453c0-9.569-8.725-16.404-17.52-14.81
	c-58.77,10.049-150.645,47.285-172.119,59.678C1.965,347.657-10.652,393.286,10.186,429.5
	c20.557,35.584,65.885,48.045,101.689,27.876c0.264-0.146,0.527-0.278,0.762-0.425c0,0,0.029-0.029,0.059-0.029
	c21.533-12.451,99.58-73.301,137.666-119.165C255.664,331.385,254.786,321.922,248.399,316.634z"/>
<path style="fill:#1689FC;" d="M257.012,225c-32.999,0-60,28.999-60,62c0,33.3,27.001,60,60,60s60-26.7,60-60
	C317.012,253.999,290.011,225,257.012,225z"/>
<g>
	<path style="fill:#1BD9DE;" d="M449.543,273.641c-5.449-80.874-59.377-152.674-137.131-175.672
		c-19.169-5.659-10.248-34.435,8.496-28.77c89.736,26.543,152.277,109.08,158.576,202.42
		C480.819,291.425,450.872,293.61,449.543,273.641z"/>
	<path style="fill:#1BD9DE;" d="M385.295,251.551c-11.455-42.026-40.744-78.143-81.672-93.26
		c-18.623-6.861-8.191-34.946,10.371-28.154c50.039,18.486,86.242,62.176,100.246,113.533
		C419.427,262.804,390.54,270.838,385.295,251.551z"/>
</g>
<path style="fill:#003A92;" d="M278.313,264.8h-21.301V0c41.4,0,75,33.6,75,75c0,24.899-13.799,124.999-34.501,180.799
	C294.812,263.599,286.111,267.499,278.313,264.8z"/>
<path style="fill:#136EF1;" d="M317.012,287c0,33.3-27.001,60-60,60V225C290.011,225,317.012,253.999,317.012,287z"/>
<g>
</g>
<g>
</g>
<g>
</g>
<g>
</g>
<g>
</g>
<g>
</g>
<g>
</g>
<g>
</g>
<g>
</g>
<g>
</g>
<g>
</g>
<g>
</g>
<g>
</g>
<g>
</g>
<g>
</g>
</svg>
