<?xml version="1.0" encoding="iso-8859-1"?>
<!-- Generator: Adobe Illustrator 19.0.0, SVG Export Plug-In . SVG Version: 6.00 Build 0)  -->
<svg version="1.1" id="Capa_1" xmlns="http://www.w3.org/2000/svg" xmlns:xlink="http://www.w3.org/1999/xlink" x="0px" y="0px"
	 viewBox="0 0 512 512" style="enable-background:new 0 0 512 512;" xml:space="preserve">
<g>
	<g>
		<g>
			<path d="M42.33,346.612c0.001,0.005-0.427-2.262-0.426-2.257l0.422,2.241C42.327,346.602,42.329,346.607,42.33,346.612z"/>
			<path d="M512,199.902v-36.375c0-33.04-14.625-62.105-36.605-78.594c7.453-1.726,13.271-7.271,14.857-14.664
				c1.845-8.605-2.589-16.937-11.031-20.73C434.52,29.448,358.972,5.5,252.919,5.5C146.582,5.5,74.248,29.572,32.292,49.767
				c-8.204,3.948-12.42,12.281-10.492,20.734c1.686,7.387,7.373,12.771,14.785,14.447C14.616,101.44,0,130.497,0,163.527v36.375
				c0,31.254,11.094,59.487,28.847,79.441c3.588,16.717,8.613,33.281,14.987,49.383L31.759,331c-1.955,0.368-3.684,1.497-4.806,3.14
				s-1.545,3.663-1.177,5.618l0.426,2.26L9.11,345.24c-4.069,0.767-6.747,4.688-5.98,8.758l26.56,141.05
				c0.368,1.955,1.497,3.684,3.141,4.806c1.255,0.857,2.73,1.307,4.229,1.307c0.463,0,0.928-0.043,1.39-0.13l17.087-3.221
				l0.427,2.265c0.368,1.955,1.497,3.684,3.14,4.806c1.256,0.857,2.731,1.307,4.23,1.307c0.463,0,0.927-0.043,1.388-0.13L96.881,500
				c4.071-0.767,6.749-4.688,5.982-8.758c-0.766-4.072-4.692-6.749-8.758-5.982l-24.79,4.668l-0.423-2.244
				c-0.001-0.008-0.002-0.016-0.003-0.023c-0.001-0.007-0.004-0.015-0.005-0.022l-26.98-143.284l61.097-11.504
				c0.004,0.023,0,0,0.004,0.023l27.327,145.127c-0.667-3.543-5.435-28.86-5.434-28.854c0.001,0.006,5.512,29.271,5.514,29.277
				c0,0-0.018-0.096-0.046-0.246l0.046,0.246l-5.469,1.03c-4.07,0.766-6.749,4.687-5.982,8.758c0.766,4.07,4.688,6.756,8.758,5.982
				l12.84-2.417c1.955-0.367,3.684-1.497,4.806-3.14c1.122-1.643,1.545-3.663,1.177-5.618l-3.982-21.146
				C179.484,490.425,219.959,506.5,256,506.5c36.035,0,76.502-16.069,113.441-44.631l-3.982,21.15
				c-0.767,4.07,1.912,7.991,5.982,8.758l75.838,14.28c0.469,0.089,0.936,0.131,1.396,0.131c3.535,0,6.684-2.512,7.361-6.113
				l0.427-2.265l17.087,3.221c0.462,0.087,0.927,0.13,1.39,0.13c1.498,0,2.975-0.449,4.229-1.307
				c1.644-1.122,2.772-2.851,3.141-4.806l26.56-141.05c0.767-4.07-1.911-7.991-5.98-8.758l-17.091-3.221l0.426-2.26
				c0.368-1.955-0.055-3.976-1.177-5.618c-1.122-1.642-2.851-2.771-4.806-3.14l-12.075-2.274
				c6.374-16.103,11.399-32.666,14.987-49.383C500.906,259.389,512,231.157,512,199.902z M52.761,483.069l-9.719,1.831
				L19.258,358.592l9.719-1.832L52.761,483.069z M36.425,67.165c-0.369-1.615,0.452-2.958,2.373-3.883
				C79.347,43.766,149.411,20.5,252.919,20.5c103.396,0,176.79,23.231,220.153,42.721c1.999,0.898,2.867,2.248,2.513,3.904
				c-0.351,1.635-1.89,3.381-5.159,3.381H41.576C38.34,70.506,36.793,68.78,36.425,67.165z M116.353,322.703
				c-0.766-4.071-4.692-6.756-8.758-5.982l-48.734,9.177c-3.954-9.717-7.405-19.611-10.304-29.618
				c12.973,8.303,27.802,13.021,43.542,13.021h62.131c19.198,0,37.413-8.055,51.289-22.68c13.285-13.997,30.196-21.705,47.62-21.705
				c0.82,0,1.656,0.021,2.546,0.065c16.49,0.692,31.908,8.004,44.589,21.145c14.43,14.944,32.811,23.175,51.756,23.175h67.87
				c15.74,0,30.569-4.718,43.542-13.021c-2.899,10.007-6.35,19.901-10.304,29.618l-48.734-9.177
				c-4.063-0.767-7.991,1.911-8.758,5.982l-5.511,29.269l-45.161-8.5c-18.768-29.338-51.637-48.826-88.974-48.826
				c-37.337,0-70.206,19.488-88.974,48.826l-45.162,8.5L116.353,322.703z M138.411,438.973c-0.065-0.058-0.131-0.116-0.196-0.174
				l-13.574-72.085l33.615-6.326c-5.023,12.29-7.8,25.729-7.8,39.805c-0.001,12.4,2.156,24.306,6.102,35.368L138.411,438.973z
				 M153.536,451.392l9.251-1.74c2.736,5.138,5.884,10.021,9.401,14.61C165.909,460.357,159.678,456.061,153.536,451.392z
				 M256,490.737c-49.927,0-90.545-40.618-90.545-90.545c0-49.927,40.618-90.546,90.545-90.546s90.545,40.62,90.545,90.546
				C346.545,450.119,305.927,490.737,256,490.737z M339.816,464.259c3.514-4.588,6.662-9.471,9.398-14.606l9.249,1.739
				C352.321,456.059,346.092,460.354,339.816,464.259z M483.023,356.759l9.719,1.833L468.958,484.9l-9.719-1.832L483.023,356.759z
				 M470.094,344.351l-0.42,2.244c-0.001,0.005-0.003,0.01-0.004,0.016c-0.001,0.006-0.001,0.011-0.002,0.016l-26.552,141.011
				c-0.001,0.008-0.004,0.015-0.005,0.022c-0.001,0.007-0.002,0.016-0.003,0.023l-0.423,2.244l-61.097-11.504l5.508-29.255
				c0.001-0.008,0.004-0.016,0.005-0.023c0.001-0.007,0.002-0.014,0.003-0.021l5.985-31.79c0.767-4.07-1.912-7.992-5.982-8.758
				c-4.063-0.771-7.992,1.911-8.758,5.982l-4.564,24.239c-0.065,0.058-0.131,0.116-0.197,0.174l-18.147-3.412
				c3.947-11.063,6.103-22.968,6.103-35.369c0-14.076-2.777-27.515-7.8-39.805l33.614,6.326l-2.913,15.468
				c-0.767,4.07,1.912,7.991,5.982,8.758c4.063,0.771,7.992-1.911,8.758-5.982l4.286-22.762c0.005-0.026,0.013-0.052,0.018-0.078
				c0.004-0.023,5.504-29.244,5.508-29.268L470.094,344.351z M419.9,294.3h-67.87c-14.839,0-29.388-6.604-40.964-18.593
				c-15.186-15.736-34.63-24.868-54.689-25.71c-1.077-0.055-2.166-0.082-3.237-0.082c-21.579,0-42.354,9.368-58.5,26.38
				c-11.017,11.61-25.367,18.005-40.409,18.005H92.1c-42.513,0-77.1-42.347-77.1-94.398v-36.375
				c0-42.985,28.464-77.957,63.45-77.957h355.1c34.986,0,63.45,34.972,63.45,77.957v36.375C497,251.954,462.413,294.3,419.9,294.3z"
				/>
		</g>
	</g>
</g>
<g>
	<g>
		<path d="M468.382,120.071c-9.15-12.394-21.847-19.501-34.832-19.501H128.5c-4.143,0-7.5,3.357-7.5,7.5s3.357,7.5,7.5,7.5h305.05
			c17.819,0,33.45,22.41,33.45,47.957v36.375c0,18.489-5.729,35.572-16.132,48.102c-8.726,10.509-19.724,16.297-30.968,16.297
			h-67.87c-6.627,0-13.51-3.35-19.382-9.431c-20.517-21.261-47.127-33.635-74.879-34.839c-1.524-0.076-3.081-0.115-4.629-0.115
			c-29.89,0-58.394,12.688-80.262,35.727c-5.296,5.583-11.919,8.658-18.648,8.658H92.1c-11.244,0-22.242-5.788-30.968-16.297
			C50.729,235.475,45,218.392,45,199.902v-36.375c0-25.547,15.631-47.957,33.45-47.957H97c4.143,0,7.5-3.357,7.5-7.5
			s-3.357-7.5-7.5-7.5H78.45c-12.985,0-25.682,7.107-34.832,19.501C34.836,131.964,30,147.396,30,163.527v36.375
			c0,21.981,6.958,42.468,19.591,57.684c11.627,14.003,26.723,21.715,42.509,21.715h62.131c10.886,0,21.374-4.735,29.529-13.333
			c19.006-20.024,43.646-31.052,69.381-31.052c1.299,0,2.604,0.032,3.929,0.099c23.942,1.039,46.95,11.79,64.787,30.272
			c8.725,9.037,19.44,14.014,30.174,14.014h67.87c15.785,0,30.882-7.712,42.509-21.715C475.042,242.37,482,221.884,482,199.902
			v-36.375C482,147.396,477.164,131.964,468.382,120.071z"/>
	</g>
</g>
<g>
	<g>
		<path d="M256,322.42c-42.884,0-77.771,34.889-77.771,77.772s34.888,77.771,77.771,77.771s77.771-34.888,77.771-77.771
			S298.884,322.42,256,322.42z M256,462.964c-34.612,0-62.771-28.159-62.771-62.771c0-34.613,28.159-62.772,62.771-62.772
			s62.771,28.159,62.771,62.772C318.771,434.805,290.612,462.964,256,462.964z"/>
	</g>
</g>
<g>
	<g>
		<circle cx="289.25" cy="374.78" r="7.5"/>
	</g>
</g>
<g>
	<g>
		<circle cx="289.25" cy="420.78" r="7.5"/>
	</g>
</g>
<g>
	<g>
		<circle cx="256" cy="352.28" r="7.5"/>
	</g>
</g>
<g>
	<g>
		<circle cx="256" cy="443.28" r="7.5"/>
	</g>
</g>
<g>
	<g>
		<circle cx="256" cy="397.78" r="7.5"/>
	</g>
</g>
<g>
	<g>
		<circle cx="222.75" cy="374.78" r="7.5"/>
	</g>
</g>
<g>
	<g>
		<circle cx="222.75" cy="420.78" r="7.5"/>
	</g>
</g>
<g>
</g>
<g>
</g>
<g>
</g>
<g>
</g>
<g>
</g>
<g>
</g>
<g>
</g>
<g>
</g>
<g>
</g>
<g>
</g>
<g>
</g>
<g>
</g>
<g>
</g>
<g>
</g>
<g>
</g>
</svg>
