<?xml version="1.0" encoding="iso-8859-1"?>
<!-- Generator: Adobe Illustrator 19.0.0, SVG Export Plug-In . SVG Version: 6.00 Build 0)  -->
<svg xmlns="http://www.w3.org/2000/svg" xmlns:xlink="http://www.w3.org/1999/xlink" version="1.1" id="Capa_1" x="0px" y="0px" viewBox="0 0 470 470" style="enable-background:new 0 0 470 470;" xml:space="preserve" width="512px" height="512px">
<g>
	<path d="M302.09,89.027V7.5c0-4.142-3.358-7.5-7.5-7.5H175.41c-4.142,0-7.5,3.358-7.5,7.5v81.527   c-49.121,3.837-87.916,45.033-87.916,95.122v187.057c0,35.422,26.896,64.671,61.337,68.421V462.5c0,4.142,3.358,7.5,7.5,7.5   h172.338c4.142,0,7.5-3.358,7.5-7.5v-22.873c34.441-3.75,61.337-32.999,61.337-68.421V184.149   C390.006,134.061,351.21,92.865,302.09,89.027z M287.09,15v73.733H242.5V71.669c7.993-3.038,13.698-10.757,13.698-19.802   c0-11.689-9.509-21.198-21.198-21.198s-21.198,9.509-21.198,21.198c0,9.045,5.705,16.764,13.698,19.802v17.065h-44.59V15H287.09z    M235,58.064c-3.417,0-6.198-2.78-6.198-6.198c0-3.418,2.781-6.198,6.198-6.198s6.198,2.78,6.198,6.198   C241.198,55.284,238.417,58.064,235,58.064z M175.41,103.733h119.18c41.812,0,76.258,32.079,80.054,72.916h-227.15   c-4.142,0-7.5,3.358-7.5,7.5s3.358,7.5,7.5,7.5h227.512v172.057H94.994V191.649h22.5c4.142,0,7.5-3.358,7.5-7.5s-3.358-7.5-7.5-7.5   H95.356C99.152,135.813,133.598,103.733,175.41,103.733z M156.331,455v-14.957h157.338V455H156.331z M321.169,425.043H148.831   c-27.14,0-49.641-20.19-53.303-46.337h278.944C370.81,404.853,348.309,425.043,321.169,425.043z" fill="#FFFFFF"/>
	<path d="M235,348.707c16.108,0,30.181-5.601,40.696-16.198c10.881-10.966,17.05-26.568,16.925-42.806   c-0.233-30.101-21.573-57.001-22.481-58.132c-1.475-1.834-3.722-2.866-6.077-2.799c-2.353,0.072-4.535,1.245-5.894,3.167   c0,0-0.605,0.856-1.51,2.135c-3.672-8.004-9.11-17.765-16.277-25.149c-1.412-1.455-3.354-2.276-5.381-2.276   s-3.969,0.821-5.381,2.276c-7.167,7.384-12.605,17.145-16.277,25.149c-0.904-1.279-1.51-2.135-1.51-2.135   c-1.358-1.922-3.541-3.095-5.894-3.167c-2.344-0.082-4.603,0.964-6.077,2.799c-0.908,1.13-22.248,28.031-22.481,58.132   c-0.125,16.238,6.043,31.84,16.925,42.806C204.819,343.105,218.892,348.707,235,348.707z M205.81,249.403l1.786,2.525   c2.182,3.084,3.906,5.521,8.09,5.25c2.949-0.19,5.511-2.093,6.544-4.861c0.022-0.06,0.082-0.227,0.171-0.495   c1.343-4.024,5.658-15.937,12.599-25.855c6.941,9.918,11.255,21.831,12.599,25.855c0.09,0.269,0.149,0.436,0.171,0.495   c1.298,3.479,4.948,5.484,8.579,4.714c2.875-0.608,3.872-2.017,6.056-5.104l1.785-2.524c5.606,9.151,13.308,24.579,13.43,40.416   c0.095,12.268-4.487,23.976-12.572,32.124c-7.637,7.696-18.027,11.764-30.048,11.764s-22.412-4.068-30.048-11.764   c-8.085-8.148-12.667-19.856-12.572-32.124C192.502,273.98,200.205,258.552,205.81,249.403z" fill="#FFFFFF"/>
</g>
<g>
</g>
<g>
</g>
<g>
</g>
<g>
</g>
<g>
</g>
<g>
</g>
<g>
</g>
<g>
</g>
<g>
</g>
<g>
</g>
<g>
</g>
<g>
</g>
<g>
</g>
<g>
</g>
<g>
</g>
</svg>
