<?xml version="1.0" encoding="iso-8859-1"?>
<!-- Generator: Adobe Illustrator 19.0.0, SVG Export Plug-In . SVG Version: 6.00 Build 0)  -->
<svg version="1.1" id="Layer_1" xmlns="http://www.w3.org/2000/svg" xmlns:xlink="http://www.w3.org/1999/xlink" x="0px" y="0px"
	 viewBox="0 0 511.998 511.998" style="enable-background:new 0 0 511.998 511.998;" xml:space="preserve">
<g>
	<g>
		<g>
			<path d="M340.034,172.404h-168.31v168.309h168.31V172.404z M248.396,325.745h-61.704v-61.703h61.704V325.745z M248.396,249.074
				h-61.704v-61.703h61.704V249.074z M325.067,325.745h-61.704v-61.703h61.704V325.745z M325.067,249.075h-61.704v-61.703h61.704
				V249.075z"/>
			<path d="M484.896,309.208c-4.199,0-8.172,0.979-11.708,2.715l-35.24-35.239h-44.295v-40.252h38.096l28.693,28.693
				c-1.418,3.255-2.209,6.842-2.209,10.613c-0.001,14.704,11.96,26.665,26.663,26.665c14.703,0,26.665-11.961,26.665-26.664
				c0-14.703-11.961-26.664-26.665-26.664c-5.483,0-10.583,1.665-14.825,4.513l-32.124-32.123h-44.295v-40.252h65.52
				c3.084,11.314,13.445,19.66,25.724,19.66c14.703,0,26.665-11.961,26.665-26.664c0-14.703-11.961-26.664-26.665-26.664
				c-11.93,0-22.054,7.876-25.448,18.701h-65.795v-47.461h-47.461V80.69l30.138-30.136c3.565,1.772,7.578,2.774,11.823,2.774
				c14.703,0,26.665-11.961,26.665-26.664C414.816,11.961,402.855,0,388.152,0c-14.702,0-26.664,11.961-26.664,26.664
				c0,5.023,1.398,9.726,3.823,13.741l-34.087,34.086v44.294h-40.251V52.251c11.07-3.243,19.18-13.482,19.18-25.587
				C310.153,11.961,298.191,0,283.489,0c-14.703,0-26.665,11.961-26.665,26.664c0,12.104,8.11,22.344,19.181,25.588v66.533h-40.252
				V74.491l-35.027-35.027c2.089-3.802,3.281-8.163,3.281-12.799C204.007,11.961,192.046,0,177.343,0s-26.665,11.961-26.665,26.664
				c0,14.703,11.961,26.664,26.665,26.664c4.636,0,8.997-1.191,12.799-3.281l30.644,30.643v38.095h-40.251V70.107h-48.538
				c-3.243-11.07-13.482-19.18-25.588-19.18c-14.703,0-26.665,11.961-26.665,26.664s11.961,26.665,26.665,26.665
				c12.106,0,22.345-8.11,25.588-19.181h33.571v33.711h-47.461v47.461H84.395v-5.94c11.07-3.243,19.181-13.482,19.181-25.587
				c0-14.703-11.961-26.664-26.665-26.664c-14.702,0-26.664,11.961-26.664,26.664c0,12.104,8.11,22.344,19.18,25.587v20.907h48.679
				v40.251H80.011l-30.45-30.45c2.657-4.145,4.205-9.066,4.205-14.345c0-14.703-11.961-26.664-26.664-26.664
				S0.437,161.967,0.437,176.67c0,14.703,11.961,26.664,26.665,26.664c3.981,0,7.758-0.883,11.155-2.455l35.554,35.554h44.295
				v40.252H80.011l-28.529-28.529c1.464-3.298,2.283-6.943,2.283-10.777c0-14.703-11.961-26.664-26.664-26.664
				c-14.703,0-26.665,11.961-26.665,26.664c0,14.703,11.961,26.664,26.665,26.664c5.421,0,10.467-1.63,14.68-4.42l32.029,32.03
				h44.295v40.251H73.812l-35.437,35.435c-3.427-1.605-7.245-2.508-11.272-2.508c-14.703,0-26.665,11.961-26.665,26.664
				s11.961,26.664,26.665,26.664c14.702,0,26.664-11.961,26.664-26.664c0-5.235-1.522-10.117-4.138-14.241l30.384-30.384h38.096
				v47.461h47.461v38.095l-29.791,29.791c-3.908-2.251-8.435-3.545-13.26-3.545c-14.702,0-26.664,11.961-26.664,26.664
				s11.961,26.664,26.664,26.664s26.665-11.961,26.665-26.664c0-4.445-1.1-8.636-3.031-12.326l34.386-34.385v-44.294h40.251v65.417
				c-11.07,3.243-19.18,13.482-19.18,25.587c0,14.703,11.961,26.664,26.664,26.664c14.703,0,26.665-11.961,26.665-26.664
				c0-12.105-8.11-22.344-19.181-25.587v-65.417h40.252v44.294l34.274,34.274c-1.968,3.716-3.088,7.947-3.088,12.436
				c0,14.703,11.961,26.664,26.664,26.664s26.665-11.961,26.665-26.664s-11.961-26.664-26.665-26.664
				c-4.781,0-9.268,1.271-13.152,3.483l-29.73-29.729v-38.095h40.251v48.679h26.072c3.243,11.07,13.482,19.18,25.587,19.18
				c14.703,0,26.665-11.961,26.665-26.664s-11.961-26.665-26.665-26.665c-12.105,0-22.344,8.11-25.587,19.181h-11.105v-33.711
				h47.461v-47.461h33.71v31.064c-11.071,3.243-19.181,13.484-19.181,25.588c0,14.703,11.961,26.664,26.665,26.664
				c14.702,0,26.664-11.961,26.664-26.664c0-12.105-8.11-22.344-19.18-25.588v-46.031h-48.679V291.65h38.096l30.372,30.372
				c-2.466,4.039-3.888,8.781-3.888,13.85c0,14.703,11.961,26.665,26.664,26.665s26.665-11.962,26.665-26.665
				S499.6,309.208,484.896,309.208z M484.895,264.042c6.45,0,11.697,5.247,11.697,11.696c0,6.449-5.247,11.696-11.697,11.696
				c-6.449,0-11.696-5.247-11.696-11.696C473.199,269.289,478.446,264.042,484.895,264.042z M484.895,162.513
				c6.45,0,11.697,5.248,11.697,11.696c0,6.449-5.247,11.696-11.697,11.696c-6.449,0-11.696-5.247-11.696-11.696
				C473.199,167.76,478.446,162.513,484.895,162.513z M388.152,14.967c6.45,0,11.697,5.247,11.697,11.696
				c0,6.449-5.248,11.696-11.697,11.696c-6.449,0-11.696-5.248-11.696-11.696C376.455,20.215,381.703,14.967,388.152,14.967z
				 M177.343,38.36c-6.45,0-11.697-5.247-11.697-11.696c0-6.449,5.247-11.696,11.697-11.696c6.449,0,11.696,5.247,11.696,11.696
				C189.039,33.113,183.792,38.36,177.343,38.36z M106.409,89.288c-6.45,0-11.697-5.247-11.697-11.697
				c0-6.449,5.247-11.696,11.697-11.696s11.697,5.247,11.697,11.696C118.107,84.04,112.859,89.288,106.409,89.288z M65.215,134.719
				c0-6.449,5.247-11.696,11.696-11.696c6.45,0,11.697,5.248,11.697,11.696c0,6.449-5.247,11.696-11.697,11.696
				C70.463,146.416,65.215,141.168,65.215,134.719z M27.103,188.365c-6.45,0-11.697-5.247-11.697-11.696
				c0-6.449,5.247-11.696,11.697-11.696c6.449,0,11.696,5.248,11.696,11.696C38.799,183.117,33.552,188.365,27.103,188.365z
				 M27.103,249.074c-6.45,0.001-11.697-5.247-11.697-11.696c0-6.449,5.247-11.696,11.697-11.696
				c6.449,0,11.696,5.247,11.696,11.696S33.552,249.074,27.103,249.074z M27.103,403.191c-6.45,0-11.697-5.248-11.697-11.696
				c0-6.449,5.247-11.696,11.697-11.696c6.449,0,11.696,5.247,11.696,11.696C38.798,397.943,33.552,403.191,27.103,403.191z
				 M122.517,497.033c-6.449,0-11.696-5.247-11.696-11.696c0-6.449,5.247-11.696,11.696-11.696c6.45,0,11.697,5.247,11.697,11.696
				C134.214,491.785,128.967,497.033,122.517,497.033z M333.855,473.639c6.45,0,11.697,5.247,11.697,11.696
				c0,6.449-5.248,11.696-11.697,11.696c-6.449,0-11.696-5.247-11.696-11.696C322.158,478.886,327.406,473.639,333.855,473.639z
				 M382.881,423.829c6.45,0,11.697,5.248,11.697,11.697c0,6.449-5.247,11.696-11.697,11.696c-6.449,0-11.696-5.248-11.696-11.696
				C371.186,429.076,376.434,423.829,382.881,423.829z M271.791,26.664c0-6.449,5.248-11.696,11.697-11.696
				c6.449,0,11.696,5.247,11.696,11.696c0,6.449-5.248,11.696-11.696,11.696C277.039,38.36,271.791,33.114,271.791,26.664z
				 M239.967,485.335c0,6.449-5.248,11.696-11.697,11.696c-6.449,0-11.696-5.247-11.696-11.696c0-6.449,5.248-11.696,11.696-11.696
				C234.719,473.639,239.967,478.886,239.967,485.335z M378.685,379.364H133.074V133.752h245.611V379.364z M446.543,403.522
				c0,6.449-5.248,11.696-11.696,11.696c-6.45,0-11.697-5.248-11.697-11.696c0-6.45,5.247-11.697,11.697-11.697
				C441.296,391.825,446.543,397.072,446.543,403.522z M484.894,347.57c-6.449,0-11.696-5.248-11.696-11.697
				c0-6.449,5.247-11.696,11.696-11.696c6.451,0,11.697,5.247,11.697,11.696C496.592,342.322,491.344,347.57,484.894,347.57z"/>
		</g>
	</g>
</g>
<g>
</g>
<g>
</g>
<g>
</g>
<g>
</g>
<g>
</g>
<g>
</g>
<g>
</g>
<g>
</g>
<g>
</g>
<g>
</g>
<g>
</g>
<g>
</g>
<g>
</g>
<g>
</g>
<g>
</g>
</svg>
