<?xml version="1.0" encoding="iso-8859-1"?>
<!-- Generator: Adobe Illustrator 19.0.0, SVG Export Plug-In . SVG Version: 6.00 Build 0)  -->
<svg version="1.1" id="Layer_1" xmlns="http://www.w3.org/2000/svg" xmlns:xlink="http://www.w3.org/1999/xlink" x="0px" y="0px"
	 viewBox="0 0 512 512" style="enable-background:new 0 0 512 512;" xml:space="preserve">
<path style="fill:#464655;" d="M317.793,392.828H194.207c-9.751,0-17.655-7.904-17.655-17.655V242.759
	c0-9.751,7.904-17.655,17.655-17.655h123.586c9.751,0,17.655,7.904,17.655,17.655v132.414
	C335.448,384.924,327.544,392.828,317.793,392.828z"/>
<path style="fill:#707487;" d="M158.897,392.828H17.655C7.904,392.828,0,384.924,0,375.172V136.828
	c0-9.751,7.904-17.655,17.655-17.655h141.241c9.751,0,17.655,7.904,17.655,17.655v238.345
	C176.552,384.924,168.648,392.828,158.897,392.828z"/>
<circle style="fill:#464655;" cx="88.276" cy="295.724" r="26.483"/>
<path style="fill:#D7DEED;" d="M88.276,357.517c-34.073,0-61.793-27.724-61.793-61.793s27.72-61.793,61.793-61.793
	s61.793,27.724,61.793,61.793S122.349,357.517,88.276,357.517z M88.276,251.586c-24.337,0-44.138,19.801-44.138,44.138
	c0,24.337,19.801,44.138,44.138,44.138s44.138-19.801,44.138-44.138C132.414,271.388,112.612,251.586,88.276,251.586z"/>
<path style="fill:#464655;" d="M88.276,207.448c-14.603,0-26.483-11.88-26.483-26.483s11.88-26.483,26.483-26.483
	s26.483,11.88,26.483,26.483S102.879,207.448,88.276,207.448z M88.276,172.138c-4.866,0-8.828,3.957-8.828,8.828
	s3.961,8.828,8.828,8.828s8.828-3.957,8.828-8.828S93.142,172.138,88.276,172.138z"/>
<g>
	<path style="fill:#959CB3;" d="M238.345,304.552H220.69c-4.875,0-8.828-3.948-8.828-8.828c0-4.879,3.953-8.828,8.828-8.828h17.655
		c4.875,0,8.828,3.948,8.828,8.828C247.172,300.604,243.22,304.552,238.345,304.552z"/>
	<path style="fill:#959CB3;" d="M238.345,269.241H220.69c-4.875,0-8.828-3.948-8.828-8.828c0-4.879,3.953-8.828,8.828-8.828h17.655
		c4.875,0,8.828,3.948,8.828,8.828C247.172,265.293,243.22,269.241,238.345,269.241z"/>
	<path style="fill:#959CB3;" d="M291.31,304.552h-17.655c-4.875,0-8.828-3.948-8.828-8.828c0-4.879,3.953-8.828,8.828-8.828h17.655
		c4.875,0,8.828,3.948,8.828,8.828C300.138,300.604,296.185,304.552,291.31,304.552z"/>
	<path style="fill:#959CB3;" d="M291.31,269.241h-17.655c-4.875,0-8.828-3.948-8.828-8.828c0-4.879,3.953-8.828,8.828-8.828h17.655
		c4.875,0,8.828,3.948,8.828,8.828C300.138,265.293,296.185,269.241,291.31,269.241z"/>
</g>
<path style="fill:#707487;" d="M494.345,392.828H353.103c-9.751,0-17.655-7.904-17.655-17.655V136.828
	c0-9.751,7.904-17.655,17.655-17.655h141.241c9.751,0,17.655,7.904,17.655,17.655v238.345
	C512,384.924,504.096,392.828,494.345,392.828z"/>
<circle style="fill:#464655;" cx="423.724" cy="295.724" r="26.483"/>
<path style="fill:#D7DEED;" d="M423.724,357.517c-34.073,0-61.793-27.724-61.793-61.793s27.72-61.793,61.793-61.793
	s61.793,27.724,61.793,61.793S457.798,357.517,423.724,357.517z M423.724,251.586c-24.337,0-44.138,19.801-44.138,44.138
	c0,24.337,19.801,44.138,44.138,44.138c24.337,0,44.138-19.801,44.138-44.138C467.862,271.388,448.061,251.586,423.724,251.586z"/>
<path style="fill:#464655;" d="M423.724,207.448c-14.603,0-26.483-11.88-26.483-26.483s11.88-26.483,26.483-26.483
	c14.603,0,26.483,11.88,26.483,26.483S438.327,207.448,423.724,207.448z M423.724,172.138c-4.866,0-8.828,3.957-8.828,8.828
	s3.961,8.828,8.828,8.828c4.866,0,8.828-3.957,8.828-8.828S428.59,172.138,423.724,172.138z"/>
<path style="fill:#707487;" d="M300.138,366.345h-88.276c-4.875,0-8.828-3.953-8.828-8.828v-26.483c0-4.875,3.953-8.828,8.828-8.828
	h88.276c4.875,0,8.828,3.953,8.828,8.828v26.483C308.966,362.392,305.013,366.345,300.138,366.345z"/>
<path style="fill:#FFD764;" d="M264.828,366.345h-17.655c-4.875,0-8.828-3.953-8.828-8.828v-26.483c0-4.875,3.953-8.828,8.828-8.828
	h17.655c4.875,0,8.828,3.953,8.828,8.828v26.483C273.655,362.392,269.703,366.345,264.828,366.345z"/>
<g>
</g>
<g>
</g>
<g>
</g>
<g>
</g>
<g>
</g>
<g>
</g>
<g>
</g>
<g>
</g>
<g>
</g>
<g>
</g>
<g>
</g>
<g>
</g>
<g>
</g>
<g>
</g>
<g>
</g>
</svg>
