<?xml version="1.0" encoding="iso-8859-1"?>
<!-- Generator: Adobe Illustrator 19.0.0, SVG Export Plug-In . SVG Version: 6.00 Build 0)  -->
<svg version="1.1" id="Capa_1" xmlns="http://www.w3.org/2000/svg" xmlns:xlink="http://www.w3.org/1999/xlink" x="0px" y="0px"
	 viewBox="0 0 512.001 512.001" style="enable-background:new 0 0 512.001 512.001;" xml:space="preserve">
<g>
	<g>
		<path d="M256,294.863c-27.262,0-49.442,22.18-49.442,49.442c0,27.262,22.18,49.442,49.442,49.442
			c27.262,0,49.442-22.18,49.442-49.442S283.262,294.863,256,294.863z M256,361.44c-9.464,0-17.135-7.672-17.135-17.135
			c0-9.464,7.672-17.135,17.135-17.135c9.464,0,17.135,7.672,17.135,17.135C273.135,353.769,265.464,361.44,256,361.44z"/>
	</g>
</g>
<g>
	<g>
		<path d="M256,115.652c-21.748,0-39.441,17.693-39.441,39.441c0,21.748,17.694,39.441,39.441,39.441
			c21.748,0,39.441-17.693,39.441-39.441C295.441,133.345,277.748,115.652,256,115.652z M256,172.228
			c-9.464,0-17.135-7.672-17.135-17.135c0-9.463,7.672-17.135,17.135-17.135c9.464,0,17.135,7.672,17.135,17.135
			C273.135,164.556,265.463,172.228,256,172.228z"/>
	</g>
</g>
<g>
	<g>
		<path d="M112.91,47.83v416.34h286.18V47.83H112.91z M256,85.653c38.29,0,69.441,31.151,69.441,69.441S294.29,224.535,256,224.535
			c-38.29,0-69.441-31.151-69.441-69.441C186.559,116.803,217.71,85.653,256,85.653z M256,423.747
			c-43.804,0-79.442-35.638-79.442-79.442s35.638-79.442,79.442-79.442s79.442,35.638,79.442,79.442S299.805,423.747,256,423.747z"
			/>
	</g>
</g>
<g>
	<g>
		<path d="M458.914,297.293c-4.379-13.705-12.944-22.383-13.906-23.327l-21.014,21.41c0.041,0.041,4.266,4.547,6.344,11.048
			c2.827,8.85,0.464,17.513-7.226,26.485l22.777,19.523C464.339,330.908,463.155,310.566,458.914,297.293z"/>
	</g>
</g>
<g>
	<g>
		<path d="M507.399,284.597c-8.041-25.163-24.108-41.132-24.788-41.799l-21.014,21.41c0.113,0.112,11.513,11.644,17.225,29.52
			c7.602,23.792,1.51,47.46-18.107,70.347l22.777,19.523C516.932,344.587,514.949,308.228,507.399,284.597z"/>
	</g>
</g>
<g>
	<g>
		<path d="M81.413,307.258c2.016-7.113,6.665-11.951,6.712-11.999l-0.117,0.116l-21.014-21.41
			c-0.962,0.944-9.527,9.622-13.906,23.327c-4.242,13.274-5.426,33.616,13.024,55.14l22.778-19.524
			C81.433,324.208,78.987,315.818,81.413,307.258z"/>
	</g>
</g>
<g>
	<g>
		<path d="M32.866,294.733c5.58-18.397,17.472-30.458,17.592-30.578l-10.555-10.646L29.39,242.798
			c-0.68,0.668-16.747,16.636-24.788,41.799c-7.551,23.631-9.533,59.989,23.906,99.001l22.778-19.523
			C31.95,341.516,25.752,318.186,32.866,294.733z"/>
	</g>
</g>
<g>
</g>
<g>
</g>
<g>
</g>
<g>
</g>
<g>
</g>
<g>
</g>
<g>
</g>
<g>
</g>
<g>
</g>
<g>
</g>
<g>
</g>
<g>
</g>
<g>
</g>
<g>
</g>
<g>
</g>
</svg>
