<?xml version="1.0" encoding="iso-8859-1"?>
<!-- Generator: Adobe Illustrator 19.0.0, SVG Export Plug-In . SVG Version: 6.00 Build 0)  -->
<svg version="1.1" id="Capa_1" xmlns="http://www.w3.org/2000/svg" xmlns:xlink="http://www.w3.org/1999/xlink" x="0px" y="0px" viewBox="0 0 512 512" style="enable-background:new 0 0 512 512;" xml:space="preserve">
	<path style="fill:#FFAC33;" d="M227.55,28.4v28.4c0,0,0,28.4,28.4,28.4s28.4-28.4,28.4-28.4V28.4c0,0,0-28.4-28.4-28.4
		S227.55,28.4,227.55,28.4z"/>
	<path style="fill:#FFAC33;" d="M483.55,227.6h-28.4c0,0-28.4,0-28.4,28.4s28.4,28.4,28.4,28.4h28.4c0,0,28.4,0,28.4-28.4
		S483.55,227.6,483.55,227.6z"/>
	<path style="fill:#FFAC33;" d="M28.35,284.4h28.5c0,0,28.4,0,28.4-28.4s-28.4-28.4-28.4-28.4h-28.4c0,0-28.4,0-28.4,28.4
		S28.35,284.4,28.35,284.4z"/>
	<path style="fill:#FFAC33;" d="M89.45,144c0,0,20.1,20.1,40.2,0s0-40.2,0-40.2l-20.1-20.1c0,0-20.1-20.1-40.2,0s0,40.2,0,40.2
		L89.45,144z"/>
	<path style="fill:#FFAC33;" d="M408.25,382.3c0,0-20.1-20.1-40.2,0c-20.1,20.1,0,40.2,0,40.2l20.1,20.1c0,0,20.1,20.1,40.2,0
		s0-40.2,0-40.2L408.25,382.3z"/>
	<path style="fill:#FFAC33;" d="M442.55,83.6c-20.1-20.1-40.2,0-40.2,0l-20.1,20.1c0,0-20.1,20.1,0,40.2s40.2,0,40.2,0l20.1-20.1
		C442.55,123.8,462.65,103.7,442.55,83.6z"/>
	<path style="fill:#FFAC33;" d="M83.55,442.6c20.1,20.1,40.2,0,40.2,0l20.2-20.1c0,0,20.1-20.1,0-40.2s-40.2,0-40.2,0l-20.1,20.1
		C83.55,402.4,63.45,422.5,83.55,442.6z"/>
	<path style="fill:#FFAC33;" d="M284.35,483.6v-28.4c0,0,0-28.4-28.4-28.4s-28.4,28.4-28.4,28.4v28.4c0,0,0,28.4,28.4,28.4
		S284.35,483.6,284.35,483.6z"/>
	<circle style="fill:#FFAC33;" cx="255.95" cy="256" r="142.2"/>
</svg>
