<?xml version="1.0" encoding="iso-8859-1"?>
<!-- Generator: Adobe Illustrator 19.0.0, SVG Export Plug-In . SVG Version: 6.00 Build 0)  -->
<svg version="1.1" id="Layer_1" xmlns="http://www.w3.org/2000/svg" xmlns:xlink="http://www.w3.org/1999/xlink" x="0px" y="0px"
	 viewBox="0 0 512 512" style="enable-background:new 0 0 512 512;" xml:space="preserve">
<path style="fill:#FFFFFF;" d="M371.494,59.263c5.103,0,9.24,4.137,9.24,9.24s-4.137,9.24-9.24,9.24h-18.479v46.198h46.198V45.413
	c0-12.74-10.363-23.108-23.099-23.108c-12.736,0-23.099,10.367-23.099,23.108v13.85L371.494,59.263L371.494,59.263z"/>
<path style="fill:#F28544;" d="M103.548,40.784c-35.663,0-64.677,29.013-64.677,64.677s29.013,64.677,64.677,64.677
	s64.677-29.013,64.677-64.677S139.211,40.784,103.548,40.784z"/>
<path style="fill:#E65F58;" d="M405.66,305.356c-3.839-1.218-6.447-4.778-6.447-8.806V142.464h-46.198v46.153h18.479
	c5.103,0,9.24,4.137,9.24,9.24c0,5.103-4.137,9.24-9.24,9.24h-18.479v46.198h18.479c5.103,0,9.24,4.137,9.24,9.24
	c0,5.103-4.137,9.24-9.24,9.24h-18.479v24.777c0,4.029-2.608,7.588-6.447,8.806c-40.355,12.803-67.469,49.698-67.469,91.809
	c0,53.132,43.522,96.356,97.015,96.356s97.015-43.225,97.015-96.356C473.129,355.054,446.015,318.159,405.66,305.356z"/>
<g>
	<path style="fill:#314E55;" d="M417.692,289.994V142.419v-9.194V45.413c0-22.932-18.65-41.587-41.578-41.587
		c-22.927,0-41.578,18.655-41.578,41.587v87.812v9.194v147.575c-44.483,16.999-73.916,59.249-73.916,107.171
		C260.62,460.483,312.43,512,376.114,512s115.494-51.517,115.494-114.835C491.608,349.243,462.175,306.993,417.692,289.994z
		 M376.114,22.305c12.736,0,23.099,10.367,23.099,23.108v78.527h-46.198V77.742h18.479c5.103,0,9.24-4.137,9.24-9.24
		s-4.137-9.24-9.24-9.24h-18.479v-13.85C353.015,32.672,363.378,22.305,376.114,22.305z M376.114,493.521
		c-53.493,0-97.015-43.225-97.015-96.356c0-42.11,27.114-79.005,67.469-91.809c3.839-1.218,6.447-4.778,6.447-8.806v-24.777h18.479
		c5.103,0,9.24-4.137,9.24-9.24s-4.137-9.24-9.24-9.24h-18.479v-46.198h18.479c5.103,0,9.24-4.137,9.24-9.24
		c0-5.103-4.137-9.24-9.24-9.24h-18.479v-46.152h46.198v154.085c0,4.029,2.608,7.588,6.447,8.806
		c40.355,12.804,67.469,49.699,67.469,91.809C473.129,450.296,429.607,493.521,376.114,493.521z"/>
	<path style="fill:#314E55;" d="M103.548,22.305c-45.85,0-83.156,37.306-83.156,83.156s37.306,83.156,83.156,83.156
		s83.156-37.306,83.156-83.156S149.398,22.305,103.548,22.305z M103.548,170.137c-35.663,0-64.677-29.013-64.677-64.677
		s29.013-64.677,64.677-64.677s64.677,29.013,64.677,64.677S139.211,170.137,103.548,170.137z"/>
	<path style="fill:#314E55;" d="M242.141,96.221h-36.958c-5.103,0-9.24,4.137-9.24,9.24s4.137,9.24,9.24,9.24h36.958
		c5.103,0,9.24-4.137,9.24-9.24S247.243,96.221,242.141,96.221z"/>
	<path style="fill:#314E55;" d="M103.548,197.856c-5.103,0-9.24,4.137-9.24,9.24v36.958c0,5.103,4.137,9.24,9.24,9.24
		s9.24-4.137,9.24-9.24v-36.958C112.787,201.993,108.65,197.856,103.548,197.856z"/>
	<path style="fill:#314E55;" d="M186.934,169.018c-3.609-3.609-9.456-3.609-13.065,0c-3.609,3.605-3.609,9.456,0,13.065
		l26.131,26.135c1.804,1.804,4.169,2.707,6.533,2.707c2.364,0,4.728-0.902,6.533-2.707c3.609-3.605,3.609-9.456,0-13.065
		L186.934,169.018z"/>
	<path style="fill:#314E55;" d="M180.401,44.614c2.364,0,4.728-0.902,6.533-2.707l26.131-26.135c3.609-3.609,3.609-9.461,0-13.065
		c-3.609-3.609-9.456-3.609-13.065,0l-26.131,26.135c-3.609,3.609-3.609,9.461,0,13.065
		C175.673,43.712,178.037,44.614,180.401,44.614z"/>
</g>
<g>
</g>
<g>
</g>
<g>
</g>
<g>
</g>
<g>
</g>
<g>
</g>
<g>
</g>
<g>
</g>
<g>
</g>
<g>
</g>
<g>
</g>
<g>
</g>
<g>
</g>
<g>
</g>
<g>
</g>
</svg>
