<?xml version="1.0" encoding="iso-8859-1"?>
<!-- Generator: Adobe Illustrator 19.0.0, SVG Export Plug-In . SVG Version: 6.00 Build 0)  -->
<svg version="1.1" id="Layer_1" xmlns="http://www.w3.org/2000/svg" xmlns:xlink="http://www.w3.org/1999/xlink" x="0px" y="0px"
	 viewBox="0 0 512 512" style="enable-background:new 0 0 512 512;" xml:space="preserve">
<path style="fill:#FFFFFF;" d="M251.345,55.855c5.141,0,9.309,4.168,9.309,9.309s-4.168,9.309-9.309,9.309h-18.618v46.545h46.545
	V41.9c0-12.836-10.441-23.282-23.273-23.282c-12.832,0-23.273,10.445-23.273,23.282v13.955H251.345z"/>
<path style="fill:#E65F58;" d="M285.768,303.8c-3.868-1.227-6.495-4.814-6.495-8.873V139.682h-46.545v46.5h18.618
	c5.141,0,9.309,4.168,9.309,9.309s-4.168,9.309-9.309,9.309h-18.618v46.545h18.618c5.141,0,9.309,4.168,9.309,9.309
	c0,5.141-4.168,9.309-9.309,9.309h-18.618v24.964c0,4.059-2.627,7.646-6.495,8.873c-40.659,12.9-67.977,50.073-67.977,92.5
	c0,53.532,43.85,97.082,97.745,97.082s97.745-43.55,97.745-97.082C353.745,353.873,326.427,316.7,285.768,303.8z"/>
<path style="fill:#314E55;" d="M297.891,288.323V139.636v-9.264V41.9C297.891,18.796,279.1,0,256,0s-41.891,18.796-41.891,41.9
	v88.473v9.264v148.686c-44.818,17.127-74.473,59.695-74.473,107.977c0,63.795,52.2,115.7,116.364,115.7
	s116.364-51.904,116.364-115.7C372.364,348.018,342.709,305.45,297.891,288.323z M256,18.618c12.832,0,23.273,10.445,23.273,23.282
	v79.118h-46.545V74.473h18.618c5.141,0,9.309-4.168,9.309-9.309s-4.168-9.309-9.309-9.309h-18.618V41.9
	C232.727,29.064,243.168,18.618,256,18.618z M256,493.382c-53.895,0-97.745-43.55-97.745-97.082c0-42.427,27.318-79.6,67.977-92.5
	c3.868-1.227,6.495-4.814,6.495-8.873v-24.964h18.618c5.141,0,9.309-4.168,9.309-9.309c0-5.141-4.168-9.309-9.309-9.309h-18.618
	V204.8h18.618c5.141,0,9.309-4.168,9.309-9.309s-4.168-9.309-9.309-9.309h-18.618v-46.5h46.545v155.245
	c0,4.059,2.627,7.646,6.495,8.873c40.659,12.9,67.977,50.073,67.977,92.5C353.745,449.832,309.895,493.382,256,493.382z"/>
<g>
</g>
<g>
</g>
<g>
</g>
<g>
</g>
<g>
</g>
<g>
</g>
<g>
</g>
<g>
</g>
<g>
</g>
<g>
</g>
<g>
</g>
<g>
</g>
<g>
</g>
<g>
</g>
<g>
</g>
</svg>
