<?xml version="1.0" encoding="iso-8859-1"?>
<!-- Generator: Adobe Illustrator 19.0.0, SVG Export Plug-In . SVG Version: 6.00 Build 0)  -->
<svg version="1.1" id="Layer_1" xmlns="http://www.w3.org/2000/svg" xmlns:xlink="http://www.w3.org/1999/xlink" x="0px" y="0px"
	 viewBox="0 0 512 512" style="enable-background:new 0 0 512 512;" xml:space="preserve">
<path style="fill:#AFE0EF;" d="M512,76.162v118.617c0,12.779-10.365,23.134-23.134,23.134H23.134
	C10.355,217.912,0,207.557,0,194.778V76.162C0,51.69,19.843,31.847,44.314,31.847h423.361C492.157,31.847,512,51.69,512,76.162z"/>
<path style="fill:#C9EEF7;" d="M512,76.162v118.617c0,12.779-10.365,23.134-23.134,23.134h-242.73
	C364.283,155.511,365.255,31.847,365.255,31.847h102.421C492.157,31.847,512,51.69,512,76.162z"/>
<path style="fill:#4B5A6B;" d="M448.075,157.962H63.918c-12.952,0-23.451,10.499-23.451,23.451v36.497h431.059v-36.497
	C471.526,168.462,461.027,157.962,448.075,157.962z"/>
<g>
	<rect x="85.285" y="157.968" style="fill:#AFE0EF;" width="15.673" height="60.235"/>
	<rect x="215.583" y="157.968" style="fill:#AFE0EF;" width="15.673" height="60.235"/>
	<rect x="150.434" y="157.968" style="fill:#AFE0EF;" width="15.673" height="60.235"/>
	<rect x="345.882" y="157.968" style="fill:#AFE0EF;" width="15.673" height="60.235"/>
	<rect x="280.733" y="157.968" style="fill:#AFE0EF;" width="15.673" height="60.235"/>
	<rect x="411.031" y="157.968" style="fill:#AFE0EF;" width="15.673" height="60.235"/>
</g>
<g>
	<circle style="fill:#F26464;" cx="75.442" cy="95.535" r="19.764"/>
	<circle style="fill:#F26464;" cx="149.797" cy="95.535" r="19.764"/>
</g>
<g>
	<path style="fill:#AFCCD3;" d="M383.997,480.153c-4.329,0-7.837-3.509-7.837-7.837c0-17.753,4.397-27.095,8.276-35.338
		c3.639-7.735,6.783-14.415,6.783-28.665c0-14.249-3.144-20.929-6.783-28.665c-3.879-8.243-8.276-17.586-8.276-35.338
		c0-17.751,4.397-27.092,8.276-35.334c3.639-7.734,6.783-14.413,6.783-28.66c0-4.328,3.508-7.837,7.837-7.837
		s7.837,3.509,7.837,7.837c0,17.751-4.397,27.092-8.276,35.334c-3.639,7.734-6.783,14.413-6.783,28.659
		c0,14.249,3.144,20.929,6.783,28.665c3.879,8.243,8.276,17.586,8.276,35.338c0,17.752-4.397,27.095-8.276,35.337
		c-3.639,7.735-6.783,14.415-6.783,28.665C391.834,476.644,388.325,480.153,383.997,480.153z"/>
	<path style="fill:#AFCCD3;" d="M112.937,480.153c-4.329,0-7.837-3.509-7.837-7.837c0-17.753,4.397-27.095,8.277-35.338
		c3.639-7.734,6.783-14.415,6.783-28.664c0-14.249-3.144-20.929-6.783-28.665c-3.88-8.243-8.277-17.586-8.277-35.338
		c0-17.751,4.397-27.092,8.277-35.334c3.639-7.734,6.783-14.413,6.783-28.661c0-4.328,3.508-7.837,7.837-7.837
		s7.837,3.509,7.837,7.837c0,17.751-4.397,27.093-8.277,35.334c-3.639,7.734-6.783,14.413-6.783,28.659
		c0,14.249,3.144,20.929,6.783,28.665c3.88,8.243,8.277,17.586,8.277,35.338s-4.397,27.095-8.276,35.337
		c-3.64,7.735-6.785,14.415-6.785,28.665C120.773,476.644,117.266,480.153,112.937,480.153z"/>
	<path style="fill:#AFCCD3;" d="M248.467,480.153c-4.329,0-7.837-3.509-7.837-7.837c0-17.753,4.397-27.095,8.276-35.338
		c3.639-7.735,6.783-14.415,6.783-28.665c0-14.249-3.144-20.929-6.783-28.665c-3.879-8.243-8.276-17.586-8.276-35.338
		c0-17.751,4.397-27.092,8.276-35.334c3.639-7.734,6.783-14.413,6.783-28.66c0-4.328,3.508-7.837,7.837-7.837
		s7.837,3.509,7.837,7.837c0,17.751-4.397,27.092-8.276,35.334c-3.639,7.734-6.783,14.413-6.783,28.659
		c0,14.249,3.144,20.929,6.783,28.665c3.879,8.243,8.276,17.586,8.276,35.338c0,17.752-4.397,27.095-8.276,35.337
		c-3.639,7.735-6.783,14.415-6.783,28.665C256.304,476.644,252.795,480.153,248.467,480.153z"/>
</g>
<g>
</g>
<g>
</g>
<g>
</g>
<g>
</g>
<g>
</g>
<g>
</g>
<g>
</g>
<g>
</g>
<g>
</g>
<g>
</g>
<g>
</g>
<g>
</g>
<g>
</g>
<g>
</g>
<g>
</g>
</svg>
