<?xml version="1.0" encoding="iso-8859-1"?>
<!-- Generator: Adobe Illustrator 19.0.0, SVG Export Plug-In . SVG Version: 6.00 Build 0)  -->
<svg version="1.1" id="Layer_1" xmlns="http://www.w3.org/2000/svg" xmlns:xlink="http://www.w3.org/1999/xlink" x="0px" y="0px"
	 viewBox="0 0 512 512" style="enable-background:new 0 0 512 512;" xml:space="preserve">
<g>
	<circle style="fill:#FFFFFF;" cx="158.897" cy="379.586" r="8.828"/>
	<circle style="fill:#FFFFFF;" cx="344.276" cy="379.586" r="8.828"/>
</g>
<path style="fill:#73C9C9;" d="M467.819,88.276H44.181c-14.625,0-26.526,11.922-26.526,26.569v123.414
	c0,14.647,11.901,26.569,26.526,26.569h423.638c14.625,0,26.526-11.922,26.526-26.569V114.845
	C494.345,100.198,482.444,88.276,467.819,88.276z M415.021,238.345H88.276V220.69h326.746V238.345z M459.034,211.862H52.966v-17.655
	h406.069V211.862z"/>
<g>
	<path style="fill:#314E55;" d="M467.819,70.621H44.181C19.819,70.621,0,90.457,0,114.845v123.414
		c0,24.388,19.819,44.224,44.181,44.224h423.638c24.362,0,44.181-19.836,44.181-44.224V114.845
		C512,90.457,492.181,70.621,467.819,70.621z M494.345,238.259c0,14.647-11.901,26.569-26.526,26.569H44.181
		c-14.625,0-26.526-11.922-26.526-26.569V114.845c0-14.647,11.901-26.569,26.526-26.569h423.638
		c14.625,0,26.526,11.922,26.526,26.569V238.259z"/>
	<path style="fill:#314E55;" d="M403.483,355.69c-3.448-3.448-9.035-3.448-12.483,0l-15.069,15.069h-6.799
		c-2.667-7.479-8.55-13.362-16.028-16.028v-6.799l15.069-15.069c3.448-3.448,3.448-9.035,0-12.483
		c-3.448-3.448-9.035-3.448-12.483,0l-11.414,11.414l-11.414-11.414c-3.448-3.448-9.035-3.448-12.483,0
		c-3.448,3.448-3.448,9.035,0,12.483l15.069,15.069v6.799c-7.479,2.667-13.362,8.55-16.028,16.028h-6.799l-15.069-15.069
		c-3.448-3.448-9.035-3.448-12.483,0c-3.448,3.448-3.448,9.035,0,12.483l11.414,11.414L285.069,391
		c-3.448,3.448-3.448,9.035,0,12.483c1.724,1.724,3.983,2.586,6.241,2.586c2.259,0,4.517-0.862,6.241-2.586l15.069-15.069h6.8
		c2.667,7.479,8.549,13.361,16.028,16.028v6.8l-15.069,15.069c-3.448,3.448-3.448,9.035,0,12.483c3.448,3.448,9.035,3.448,12.483,0
		l11.414-11.414l11.414,11.414c1.724,1.724,3.983,2.586,6.241,2.586s4.517-0.862,6.241-2.586c3.448-3.448,3.448-9.035,0-12.483
		l-15.069-15.069v-6.799c7.479-2.667,13.362-8.55,16.028-16.028h6.799L391,403.483c1.724,1.724,3.983,2.586,6.242,2.586
		c2.259,0,4.517-0.862,6.241-2.586c3.448-3.448,3.448-9.035,0-12.483l-11.414-11.414l11.414-11.414
		C406.931,364.724,406.931,359.138,403.483,355.69z M344.276,388.414c-4.866,0-8.828-3.957-8.828-8.828
		c0-4.871,3.961-8.828,8.828-8.828c4.866,0,8.828,3.957,8.828,8.828C353.103,384.457,349.142,388.414,344.276,388.414z"/>
	<path style="fill:#314E55;" d="M218.103,355.69c-3.448-3.448-9.035-3.448-12.483,0l-15.069,15.069h-6.799
		c-2.667-7.479-8.55-13.362-16.028-16.028v-6.799l15.069-15.069c3.448-3.448,3.448-9.035,0-12.483
		c-3.448-3.448-9.035-3.448-12.483,0l-11.414,11.414l-11.414-11.414c-3.448-3.448-9.035-3.448-12.483,0
		c-3.448,3.448-3.448,9.035,0,12.483l15.069,15.069v6.799c-7.479,2.667-13.362,8.55-16.028,16.028h-6.799l-15.069-15.069
		c-3.448-3.448-9.035-3.448-12.483,0s-3.448,9.035,0,12.483l11.414,11.414L99.69,391c-3.448,3.448-3.448,9.035,0,12.483
		c1.724,1.724,3.983,2.586,6.241,2.586c2.259,0,4.517-0.862,6.241-2.586l15.069-15.069h6.8c2.667,7.479,8.55,13.361,16.028,16.028
		v6.8L135,426.31c-3.448,3.448-3.448,9.035,0,12.483c3.448,3.448,9.035,3.448,12.483,0l11.414-11.414l11.414,11.414
		c1.724,1.724,3.983,2.586,6.241,2.586c2.259,0,4.517-0.862,6.241-2.586c3.448-3.448,3.448-9.035,0-12.483l-15.069-15.069v-6.799
		c7.479-2.667,13.362-8.55,16.028-16.028h6.799l15.069,15.069c1.724,1.724,3.983,2.586,6.242,2.586c2.259,0,4.517-0.862,6.241-2.586
		c3.448-3.448,3.448-9.035,0-12.483l-11.414-11.414l11.414-11.414C221.552,364.724,221.552,359.138,218.103,355.69z
		 M158.897,388.414c-4.866,0-8.828-3.957-8.828-8.828c0-4.871,3.961-8.828,8.828-8.828c4.866,0,8.828,3.957,8.828,8.828
		C167.724,384.457,163.763,388.414,158.897,388.414z"/>
	<rect x="88.276" y="220.69" style="fill:#314E55;" width="326.753" height="17.655"/>
	<rect x="52.966" y="194.207" style="fill:#314E55;" width="406.069" height="17.655"/>
</g>
<g>
</g>
<g>
</g>
<g>
</g>
<g>
</g>
<g>
</g>
<g>
</g>
<g>
</g>
<g>
</g>
<g>
</g>
<g>
</g>
<g>
</g>
<g>
</g>
<g>
</g>
<g>
</g>
<g>
</g>
</svg>
