<?xml version="1.0" encoding="iso-8859-1"?>
<!-- Generator: Adobe Illustrator 19.0.0, SVG Export Plug-In . SVG Version: 6.00 Build 0)  -->
<svg version="1.1" id="Capa_1" xmlns="http://www.w3.org/2000/svg" xmlns:xlink="http://www.w3.org/1999/xlink" x="0px" y="0px"
	 viewBox="0 0 512.003 512.003" style="enable-background:new 0 0 512.003 512.003;" xml:space="preserve">
<g>
	<g>
		<path d="M511.949,382.379c-0.611-18.329-6.417-35.725-16.79-50.307c-11.196-15.737-27.25-27.32-46.426-33.495l-51.345-16.535
			c-5.256-1.692-10.891,1.196-12.584,6.453c-1.693,5.257,1.196,10.891,6.453,12.584l51.345,16.535
			c35.162,11.323,48.551,41.224,49.357,65.431c0.807,24.208-10.563,54.933-44.894,68.571l-94.547,37.56
			c-17.918,7.12-32.88-0.783-40.906-10.553c-8.025-9.77-12.872-25.979-2.409-42.176c21.522-33.314,23.432-75.822,4.984-110.934
			L298.5,295.658c9.676-10.366,15.615-24.263,15.615-39.529c0-9.499-2.31-18.462-6.376-26.383l27.074-14.226
			c28.73-15.096,63.516-13.534,90.778,4.079c20.795,13.433,46.594,11.961,65.724-3.754c19.13-15.714,25.585-40.735,16.445-63.744
			L470.2,57.554c-7.438-18.723-20.063-33.97-36.511-44.094c-15.24-9.38-32.976-14.017-51.313-13.405
			c-18.329,0.611-35.725,6.417-50.307,16.79c-15.737,11.196-27.32,27.25-33.495,46.426l-43.441,134.896
			c-9.088,0.154-17.668,2.407-25.285,6.297l-14.331-27.274c-15.096-28.732-13.534-63.516,4.079-90.778
			c13.434-20.795,11.96-46.593-3.754-65.724C200.129,1.555,175.108-4.9,152.1,4.24L57.552,41.8
			c-18.723,7.438-33.97,20.063-44.094,36.511c-9.38,15.24-14.016,32.984-13.405,51.313c0.611,18.329,6.417,35.725,16.79,50.307
			c11.196,15.737,27.25,27.32,46.426,33.495l66.612,21.451c1.019,0.328,2.052,0.484,3.068,0.484c4.225,0,8.151-2.7,9.516-6.938
			c1.693-5.257-1.196-10.891-6.453-12.584L69.4,194.389c-35.162-11.323-48.551-41.224-49.357-65.431
			c-0.807-24.207,10.563-54.933,44.894-68.571l94.547-37.56c17.92-7.117,32.881,0.784,40.906,10.553s12.872,25.979,2.409,42.176
			c-21.522,33.314-23.432,75.822-4.984,110.934l15.863,30.191c-9.631,10.357-15.538,24.222-15.538,39.447
			c0,9.377,2.251,18.232,6.219,26.078l-27.172,14.277c-28.73,15.096-63.516,13.534-90.778-4.079
			c-20.795-13.434-46.594-11.96-65.724,3.754C1.555,311.873-4.9,336.894,4.24,359.903L41.8,454.45
			c7.438,18.723,20.063,33.97,36.511,44.094c14.351,8.833,30.921,13.458,48.111,13.458c1.065,0,2.133-0.018,3.203-0.053
			c18.329-0.611,35.725-6.417,50.307-16.79c15.737-11.196,27.32-27.25,33.495-46.426L256.783,314.1
			c9.175-0.102,17.841-2.348,25.529-6.257l14.172,26.972c15.096,28.732,13.534,63.516-4.079,90.778
			c-13.434,20.795-11.96,46.594,3.754,65.724c10.976,13.362,26.49,20.54,42.69,20.54c6.993,0,14.116-1.338,21.054-4.094
			l94.547-37.56c18.723-7.438,33.97-20.063,44.094-36.511C507.924,418.453,512.56,400.708,511.949,382.379z M194.389,442.602
			c-11.323,35.162-41.224,48.551-65.431,49.357c-24.207,0.8-54.933-10.563-68.571-44.894l-37.56-94.547
			c-7.119-17.92,0.784-32.88,10.553-40.906c9.77-8.024,25.98-12.871,42.176-2.409c33.314,21.522,75.821,23.432,110.934,4.984
			l30.019-15.773c5.792,5.43,12.691,9.686,20.324,12.388L194.389,442.602z M256.128,294.117c-20.947,0-37.988-17.042-37.988-37.988
			c0-20.946,17.042-37.988,37.988-37.988c20.946,0,37.988,17.042,37.988,37.988C294.116,277.075,277.075,294.117,256.128,294.117z
			 M295.485,213.592c-5.814-5.383-12.728-9.585-20.364-12.241L317.613,69.4c11.323-35.162,41.224-48.551,65.431-49.357
			c24.208-0.813,54.933,10.563,68.571,44.894l37.56,94.547c7.119,17.92-0.784,32.88-10.553,40.906
			c-9.769,8.025-25.979,12.872-42.176,2.409c-33.314-21.523-75.821-23.432-110.934-4.984L295.485,213.592z"/>
	</g>
</g>
<g>
	<g>
		<path d="M352.022,268.591c-1.86-1.86-4.44-2.93-7.07-2.93s-5.21,1.07-7.07,2.93c-1.86,1.86-2.93,4.44-2.93,7.07
			s1.07,5.21,2.93,7.07c1.86,1.86,4.44,2.93,7.07,2.93s5.21-1.07,7.07-2.93c1.86-1.86,2.93-4.44,2.93-7.07
			S353.882,270.451,352.022,268.591z"/>
	</g>
</g>
<g>
	<g>
		<path d="M178.641,230.721c-1.87-1.86-4.44-2.93-7.07-2.93c-2.64,0-5.21,1.07-7.07,2.93c-1.87,1.86-2.93,4.44-2.93,7.07
			c0,2.64,1.06,5.22,2.93,7.08c1.86,1.86,4.43,2.92,7.07,2.92c2.63,0,5.21-1.06,7.07-2.92c1.86-1.87,2.93-4.44,2.93-7.08
			C181.571,235.161,180.501,232.591,178.641,230.721z"/>
	</g>
</g>
<g>
</g>
<g>
</g>
<g>
</g>
<g>
</g>
<g>
</g>
<g>
</g>
<g>
</g>
<g>
</g>
<g>
</g>
<g>
</g>
<g>
</g>
<g>
</g>
<g>
</g>
<g>
</g>
<g>
</g>
</svg>
