<?xml version="1.0" encoding="iso-8859-1"?>
<svg version="1.1" id="Layer_1" xmlns="http://www.w3.org/2000/svg" xmlns:xlink="http://www.w3.org/1999/xlink" x="0px" y="0px" viewBox="0 0 501.333 501.333" style="enable-background:new 0 0 501.333 501.333;" xml:space="preserve">
  <path fill="#314E55" d="M410.667,298.667V261.76c0-2.347-0.747-4.693-2.24-6.507l-96-123.093C310.4,129.6,307.307,128,304,128h-42.667V10.667
    C261.333,4.8,256.533,0,250.667,0C244.8,0,240,4.8,240,10.667V128h-42.667c-3.307,0-6.4,1.493-8.427,4.16l-96,123.093
    c-1.493,1.92-2.24,4.16-2.24,6.613v36.8c0,5.867,4.8,10.667,10.667,10.667H166.4C173.227,349.12,216.427,384,250.667,384
    c34.24,0,77.44-34.88,84.267-74.667H400C405.867,309.333,410.667,304.533,410.667,298.667z M250.667,362.667
    c-23.36,0-55.573-25.92-62.613-53.333H313.28C306.24,336.747,274.027,362.667,250.667,362.667z M389.333,288H112v-22.613
    l90.56-116.053h96.213l90.56,116.053V288z"/>
</svg>