<?xml version="1.0" encoding="iso-8859-1"?>
<!DOCTYPE svg PUBLIC "-//W3C//DTD SVG 1.1//EN" "http://www.w3.org/Graphics/SVG/1.1/DTD/svg11.dtd">
<svg version="1.1" id="Capa_1" xmlns="http://www.w3.org/2000/svg" xmlns:xlink="http://www.w3.org/1999/xlink" x="0px" y="0px"
     viewBox="0 0 512 512" style="enable-background:new 0 0 512 512;" xml:space="preserve">
	<path d="M48,256c0,55.563,21.656,107.813,61,147.125l-33.938,33.938C26.656,388.688,0,324.375,0,256
		c0-68.375,26.625-132.687,75-181l33.938,33.938C69.625,148.188,48,200.438,48,256z M436.938,74.938L403,108.875
		c39.344,39.313,61,91.563,61,147.125s-21.625,107.813-60.906,147.125l33.938,33.938C485.375,388.688,512,324.375,512,256
		C512,187.562,485.344,123.25,436.938,74.938z M182.438,182.438L148.5,148.5C119.813,177.25,104,215.438,104,256
		c0,40.625,15.813,78.813,44.563,107.5l33.938-33.938C162.813,309.938,152,283.812,152,256
		C152,228.25,162.813,202.125,182.438,182.438z M363.438,148.5L329.5,182.438C349.156,202.125,360,228.25,360,256
		c0,27.813-10.812,53.938-30.438,73.563L363.5,363.5C392.188,334.812,408,296.625,408,256C408,215.375,392.188,177.25,363.438,148.5
		z M256,208c-26.5,0-48,21.5-48,48c0,26.563,21.5,48,48,48c26.531,0,48-21.438,48-48C304,229.5,282.531,208,256,208z"/>
</svg>
