<?xml version="1.0" encoding="iso-8859-1"?>
<!-- Generator: Adobe Illustrator 19.0.0, SVG Export Plug-In . SVG Version: 6.00 Build 0)  -->
<svg version="1.1" id="Layer_1" xmlns="http://www.w3.org/2000/svg" xmlns:xlink="http://www.w3.org/1999/xlink" x="0px" y="0px"
	 viewBox="0 0 280.028 280.028" style="enable-background:new 0 0 280.028 280.028;" xml:space="preserve">
<g>
	<path style="fill:#E4E5E6;" d="M201.27,35.004h35.003c4.839,0,8.751,3.92,8.751,8.751v8.751h-52.505v-8.751
		C192.519,38.925,196.43,35.004,201.27,35.004z"/>
	<path style="fill:#51BBA8;" d="M17.502,52.506h245.024c9.661,0,17.502,7.841,17.502,17.502v140.014
		c0,9.661-7.841,17.502-17.502,17.502H17.502C7.841,227.523,0,219.682,0,210.022V70.008C0,60.347,7.841,52.506,17.502,52.506z"/>
	<path style="fill:#E4E5E6;" d="M122.512,35.004c57.992,0,105.01,47.018,105.01,105.01s-47.018,105.01-105.01,105.01
		s-105.01-47.018-105.01-105.01S64.52,35.004,122.512,35.004z"/>
	<path style="fill:#5B717C;" d="M122.512,61.257c43.5,0,78.758,35.257,78.758,78.758c0,43.492-35.257,78.758-78.758,78.758
		s-78.758-35.257-78.758-78.758C43.754,96.523,79.011,61.257,122.512,61.257z"/>
	<path style="fill:#2B414D;" d="M122.512,87.51c29,0,52.505,23.514,52.505,52.505s-23.505,52.505-52.505,52.505
		c-28.992,0-52.505-23.522-52.505-52.505S93.52,87.51,122.512,87.51z"/>
	<path style="fill:#FFFFFF;" d="M144.389,105.011c7.246,0,13.126,5.881,13.126,13.126c0,7.254-5.881,13.126-13.126,13.126
		s-13.126-5.872-13.126-13.126S137.143,105.011,144.389,105.011z"/>
	<path style="fill:#FFFFFF;" d="M249.399,70.008c7.246,0,13.126,5.872,13.126,13.126s-5.881,13.126-13.126,13.126
		c-7.246,0-13.126-5.872-13.126-13.126C236.273,75.88,242.154,70.008,249.399,70.008z"/>
	<g>
		<rect x="201.27" y="35.004" style="fill:#CDCECF;" width="8.751" height="17.502"/>
		<rect x="218.771" y="35.004" style="fill:#CDCECF;" width="8.751" height="17.502"/>
		<path style="fill:#CDCECF;" d="M236.273,35.004v17.502h8.751v-8.751C245.024,38.925,241.112,35.004,236.273,35.004z"/>
	</g>
</g>
<g>
</g>
<g>
</g>
<g>
</g>
<g>
</g>
<g>
</g>
<g>
</g>
<g>
</g>
<g>
</g>
<g>
</g>
<g>
</g>
<g>
</g>
<g>
</g>
<g>
</g>
<g>
</g>
<g>
</g>
</svg>
