<?xml version="1.0" encoding="iso-8859-1"?>
<!-- Generator: Adobe Illustrator 19.0.0, SVG Export Plug-In . SVG Version: 6.00 Build 0)  -->
<svg version="1.1" id="Layer_1" xmlns="http://www.w3.org/2000/svg" xmlns:xlink="http://www.w3.org/1999/xlink" x="0px" y="0px"
	 viewBox="0 0 511.999 511.999" style="enable-background:new 0 0 511.999 511.999;" xml:space="preserve">
<g>
	<g>
		<circle cx="273.975" cy="271.104" r="76.728"/>
	</g>
</g>
<g>
	<g>
		<path d="M208.953,52.316c-35.42,55.239-24.036,104.905-7.512,136.005c19.387-17.006,44.773-27.333,72.528-27.333
			c25.922,0,49.774,9.008,68.607,24.051c32.464-29.121,80.316-27.977,98.037-76.217C465.785,40.301,283.557-64.032,208.953,52.316z"
			/>
	</g>
</g>
<g>
	<g>
		<path d="M495.957,324.196c-30.111-58.26-78.776-73.25-113.966-74.506c1.371,6.93,2.097,14.09,2.097,21.416
			c0,46.524-29.001,86.4-69.875,102.504c8.954,42.655-15.925,83.507,16.977,122.957
			C377.947,552.626,559.416,446.979,495.957,324.196z"/>
	</g>
</g>
<g>
	<g>
		<path d="M163.852,271.107c0-5.572,0.42-11.048,1.222-16.401c-41.415-13.574-64.354-55.544-114.969-46.775
			C-21.822,220.394-21.063,430.375,117,436.808c65.509,3.053,102.824-31.595,121.505-61.443
			C195.133,360.571,163.852,319.424,163.852,271.107z"/>
	</g>
</g>
<g>
</g>
<g>
</g>
<g>
</g>
<g>
</g>
<g>
</g>
<g>
</g>
<g>
</g>
<g>
</g>
<g>
</g>
<g>
</g>
<g>
</g>
<g>
</g>
<g>
</g>
<g>
</g>
<g>
</g>
</svg>
