<?xml version="1.0" encoding="iso-8859-1"?>
<!-- Generator: Adobe Illustrator 19.0.0, SVG Export Plug-In . SVG Version: 6.00 Build 0)  -->
<svg version="1.1" id="Layer_1" xmlns="http://www.w3.org/2000/svg" xmlns:xlink="http://www.w3.org/1999/xlink" x="0px" y="0px"
	 viewBox="0 0 511.999 511.999" style="enable-background:new 0 0 511.999 511.999;" xml:space="preserve">
<rect x="68.676" y="372.794" style="fill:#415E72;" width="50.527" height="87.403"/>
<path style="fill:#7BC690;" d="M124.866,41.068c-5.03,0-9.105-4.077-9.105-9.105V9.105c0-5.028,4.075-9.105,9.105-9.105
	c5.03,0,9.105,4.077,9.105,9.105v22.858C133.971,36.992,129.894,41.068,124.866,41.068z"/>
<path style="fill:#CFDCE5;" d="M212.618,247.221l-6.07-29.818V51.211c0-12.306-9.977-22.283-22.283-22.283H65.465
	c-12.306,0-22.283,9.977-22.283,22.283v158.997c0,31.576,13.105,61.737,36.189,83.283l0,0
	c23.083,21.546,36.189,51.707,36.189,83.283v135.225h227.472v-40.186c0-32.465,18.645-62.168,48.061-75.903
	c38.793-18.113,65.675-57.473,65.675-103.112v-33.086L212.618,247.221z"/>
<g>
	<polygon style="fill:#BAC6CC;" points="206.548,259.713 206.548,275.143 456.767,275.143 456.767,259.713 320.041,238.558 	"/>
	<path style="fill:#BAC6CC;" d="M119.431,293.491L119.431,293.491c-23.083-21.546-36.189-51.707-36.189-83.283V51.211
		c0-12.306,9.977-22.283,22.283-22.283h-40.06c-12.306,0-22.283,9.977-22.283,22.283v158.997c0,31.576,13.105,61.737,36.189,83.283
		l0,0c23.083,21.546,36.189,51.707,36.189,83.283v135.225h40.06V376.775C155.619,345.198,142.514,315.037,119.431,293.491z"/>
	<path style="fill:#BAC6CC;" d="M206.548,75.312H43.182c-5.03,0-9.105-4.077-9.105-9.105c0-5.028,4.075-9.105,9.105-9.105h163.365
		c5.03,0,9.105,4.077,9.105,9.105C215.652,71.235,211.577,75.312,206.548,75.312z"/>
</g>
<path style="fill:#8DE0A8;" d="M457.699,217.403H206.548v42.31h251.151c11.169,0,20.223-9.054,20.223-20.223v-1.863
	C477.922,226.457,468.868,217.403,457.699,217.403z"/>
<rect x="206.55" y="217.403" style="fill:#7BC690;" width="27.299" height="42.31"/>
<g>
</g>
<g>
</g>
<g>
</g>
<g>
</g>
<g>
</g>
<g>
</g>
<g>
</g>
<g>
</g>
<g>
</g>
<g>
</g>
<g>
</g>
<g>
</g>
<g>
</g>
<g>
</g>
<g>
</g>
</svg>
